# xmcd
#
# Track frame offsets:
#	150
#	13922
#	28015
#	41027
#	56767
#	79837
#	101210
#	119495
#	133772
#	147035
#	162657
#	179900
#	199512
#	214920
#	231387
#	242930
#	254820
#	265952
#	277722
#	293150
#	305697
#	317732
#	339262
#
# Disc length: 4658
#
# Revision: 1
# Processed by: cddbd v1.5.1PL0 Copyright (c) Steve Scherf et al.
# Submitted via: dBpowerAMP V4.0
# Normalized: r0:TRMNUM
#
DISCID=71123017
DTITLE=Various Artist - Jukebox Country
DYEAR=1997
DGENRE=Country
TTITLE0=Mike Henderson - One Foot In The Honky Tonk
TTITLE1=LeRoy Peterson - Foot On A Stool
TTITLE2=Dan Penn - Tearjoint
TTITLE3=Phil Burdett
TTITLE4=Don McAlister Jr. - Ain't It Funny
TTITLE5=Mary Cutrufello - Sworn to Pride
TTITLE6=James Intveldt - Crying Over You
TTITLE7=Roy Heinrich - Listen To Your Heart
TTITLE8=Cowboys and Indians - Western Life
TTITLE9=Cornell Hurd Band - 7 Cups Of Coffee, 14 Cigarettes
TTITLE10=Roxy Gordon - Indians
TTITLE11=Stan Ridgway - Luther Played Guitar
TTITLE12=Kevin Coyne - Take Me Back In Your Arms
TTITLE13=Erik Moll - Let Me Mend Your Broken Heart
TTITLE14=Kathy Robertson and Chris Gaffney - I'll Never Be Free
TTITLE15=Haoles - HillBilly Hula Girl
TTITLE16=Liberty Ranch - Two Long Years
TTITLE17=Debra Peters and Wyne Hancock - 5 Dollars and A Heartache
TTITLE18=Cowboy Nation - Cowboy Nation
TTITLE19=Malcolm Holcombe - 300 Miles
TTITLE20=Townes Van Zandt and Barb Donovan - I'll Be Here In The Morning
TTITLE21=Duffy Power - Till We Meet Again
TTITLE22=Simon Chardiet - The Good The Bad and The Ugly
EXTD=CD of various alternative counry artists - Gram Lynch 
EXTT0=
EXTT1=
EXTT2=
EXTT3=
EXTT4=
EXTT5=
EXTT6=
EXTT7=
EXTT8=
EXTT9=
EXTT10=
EXTT11=
EXTT12=
EXTT13=
EXTT14=
EXTT15=
EXTT16=
EXTT17=
EXTT18=
EXTT19=
EXTT20=
EXTT21=
EXTT22=
PLAYORDER=
